<svg width="24" height="24" viewBox="0 0 24 24" fill="none" xmlns="http://www.w3.org/2000/svg">
<path opacity="0.2" d="M23.6579 0.489014L14.5902 12.0177L23.6336 23.511H18.4208L11.996 15.3221L5.53576 23.511H0.333984L9.37737 12.0177L0.333984 0.522212V0.489014H5.53576L11.996 8.70451L18.4562 0.489014H23.6579Z" fill="#1C437F"/>
<path d="M21.8283 17.5131C21.7402 17.4235 21.6819 17.3089 21.6613 17.1849C21.6407 17.0609 21.6589 16.9336 21.7132 16.8204C22.4068 15.3706 22.7706 13.7851 22.7786 12.1778C22.7867 10.5705 22.4387 8.98142 21.7597 7.5248C21.6919 7.37805 21.6852 7.21038 21.741 7.05868C21.7968 6.90698 21.9105 6.78366 22.0572 6.71586C22.2038 6.64807 22.3713 6.64134 22.5229 6.69717C22.6745 6.75299 22.7978 6.8668 22.8655 7.01354C23.6203 8.63227 24.0076 10.3982 23.9996 12.1844C23.9915 13.9707 23.5884 15.733 22.8191 17.3449C22.7772 17.4329 22.7148 17.5096 22.6371 17.5685C22.5594 17.6273 22.4688 17.6667 22.3728 17.6831C22.2767 17.6996 22.1781 17.6928 22.0853 17.6632C21.9925 17.6336 21.9081 17.5821 21.8393 17.5131H21.8283Z" fill="url(#paint0_linear_7008_68992)"/>
<path d="M6.84228 2.11339C6.77256 2.04433 6.72064 1.95936 6.69097 1.86579C6.66131 1.77221 6.65478 1.67283 6.67197 1.57618C6.68915 1.47953 6.72954 1.38849 6.78964 1.3109C6.84973 1.23331 6.92775 1.17148 7.01699 1.13072C8.6337 0.377428 10.3969 -0.0086535 12.1802 0.000147141C13.9636 0.00894778 15.7229 0.412413 17.3321 1.18163C17.4047 1.21592 17.4698 1.26419 17.5238 1.32369C17.5778 1.38318 17.6195 1.45272 17.6466 1.52835C17.6737 1.60399 17.6857 1.68422 17.6818 1.76447C17.6779 1.84473 17.6583 1.92343 17.624 1.99609C17.5897 2.06876 17.5415 2.13395 17.4821 2.18796C17.4226 2.24196 17.3531 2.28372 17.2775 2.31085C17.202 2.33798 17.1218 2.34994 17.0416 2.34606C16.9614 2.34218 16.8827 2.32254 16.8101 2.28824C15.3613 1.59458 13.7768 1.23084 12.1707 1.22319C10.5645 1.21554 8.97666 1.56415 7.52125 2.24398C7.40822 2.29377 7.2827 2.30795 7.16142 2.28462C7.04013 2.2613 6.92882 2.20157 6.84228 2.11339Z" fill="url(#paint1_linear_7008_68992)"/>
<path d="M1.25145 17.1611C1.20158 17.1099 1.16048 17.0509 1.1298 16.9863C0.376756 15.368 -0.00901713 13.6031 0.000159974 11.818C0.00933708 10.0329 0.413241 8.27197 1.18289 6.66157C1.2524 6.51483 1.3773 6.40172 1.53014 6.34714C1.68298 6.29256 1.85124 6.30098 1.99788 6.37053C2.14452 6.44009 2.25754 6.5651 2.31208 6.71805C2.36662 6.87099 2.35822 7.03936 2.28871 7.18611C1.5952 8.63586 1.23134 10.2214 1.22331 11.8287C1.21528 13.436 1.56327 15.025 2.24226 16.4817C2.30153 16.6116 2.31342 16.7583 2.27585 16.8961C2.23828 17.0339 2.15364 17.1542 2.03663 17.236C1.91963 17.3178 1.77765 17.356 1.63541 17.344C1.49317 17.3319 1.35966 17.2703 1.25808 17.17L1.25145 17.1611Z" fill="url(#paint2_linear_7008_68992)"/>
<path d="M6.48872 22.7053C6.38659 22.6039 6.32367 22.4696 6.31115 22.3262C6.29862 22.1828 6.3373 22.0396 6.42031 21.922C6.50333 21.8044 6.6253 21.7201 6.76456 21.684C6.90382 21.6479 7.05136 21.6624 7.18097 21.7248C8.40991 22.3102 9.73781 22.6593 11.0956 22.754C11.434 22.7783 11.779 22.7872 12.1173 22.7783C13.6194 22.7483 15.0988 22.4053 16.461 21.7713C16.5336 21.7376 16.6121 21.7185 16.6921 21.7152C16.7721 21.7119 16.852 21.7243 16.9271 21.7518C17.0023 21.7794 17.0713 21.8215 17.1302 21.8757C17.1891 21.9299 17.2368 21.9952 17.2705 22.0679C17.3042 22.1406 17.3232 22.2191 17.3266 22.2992C17.3299 22.3792 17.3174 22.4591 17.2899 22.5343C17.2624 22.6096 17.2204 22.6786 17.1662 22.7376C17.112 22.7965 17.0467 22.8442 16.9741 22.8779C15.46 23.5831 13.8158 23.9652 12.1461 24C11.7679 24 11.3853 24 11.0093 23.9713C9.5001 23.8677 8.02407 23.4795 6.65903 22.827C6.59547 22.7969 6.5378 22.7557 6.48872 22.7053Z" fill="url(#paint3_linear_7008_68992)"/>
<path d="M21.9346 2.92566L16.432 8.42553L15.5717 7.56237L16.2153 6.92053L17.2636 5.86925C16.015 4.7992 14.4707 4.13448 12.8358 3.96331C11.2008 3.79215 9.55248 4.12264 8.10961 4.91092C7.96796 4.98841 7.80134 5.0064 7.64643 4.96095C7.49151 4.9155 7.36099 4.81033 7.28357 4.66857C7.20614 4.52682 7.18815 4.36009 7.23357 4.20506C7.27898 4.05004 7.38408 3.91942 7.52574 3.84193C9.19944 2.92742 11.1132 2.5487 13.0088 2.75687C14.9043 2.96504 16.6905 3.7501 18.1261 5.00609L20.3665 2.76409L21.0676 2.0625C21.0801 2.28573 21.1737 2.49668 21.3308 2.65564C21.4896 2.82038 21.706 2.91715 21.9346 2.92566Z" fill="url(#paint4_linear_7008_68992)"/>
<path d="M23.2171 0.77232C22.9224 0.483918 22.5364 0.307522 22.1256 0.273584C21.7148 0.239646 21.3051 0.350294 20.9671 0.586429C20.6292 0.822564 20.3842 1.16937 20.2745 1.56697C20.1648 1.96457 20.1973 2.38802 20.3663 2.76422C20.4532 2.95286 20.5731 3.12449 20.7202 3.27105C20.8836 3.436 21.0781 3.56693 21.2924 3.65628C21.5067 3.74563 21.7365 3.79163 21.9686 3.79163C22.2008 3.79163 22.4306 3.74563 22.6449 3.65628C22.8592 3.56693 23.0536 3.436 23.2171 3.27105C23.5473 2.93922 23.7327 2.48999 23.7327 2.02169C23.7327 1.55338 23.5473 1.10415 23.2171 0.77232ZM22.6089 2.65578C22.4393 2.82526 22.2094 2.92045 21.9697 2.92045C21.7301 2.92045 21.5002 2.82526 21.3306 2.65578C21.1608 2.48614 21.0653 2.25594 21.065 2.01583C21.0648 1.77572 21.16 1.54536 21.3295 1.37542C21.499 1.20549 21.729 1.10991 21.969 1.1097C22.2089 1.10949 22.4391 1.20468 22.6089 1.37432C22.6931 1.4584 22.7599 1.55827 22.8055 1.66821C22.851 1.77816 22.8745 1.89602 22.8745 2.01505C22.8745 2.13408 22.851 2.25194 22.8055 2.36188C22.7599 2.47182 22.6931 2.5717 22.6089 2.65578Z" fill="url(#paint5_linear_7008_68992)"/>
<path d="M16.4675 20.1688C15.1922 20.8691 13.7701 21.2589 12.3162 21.3064H12.0619C9.78365 21.3264 7.57834 20.5035 5.86929 18.9958L2.91454 21.9438C2.90611 21.7184 2.81197 21.5046 2.65135 21.3463C2.49257 21.185 2.27809 21.0908 2.052 21.0829L2.75309 20.3813L5.00233 18.1482L5.86487 17.285L6.91319 16.2337L7.55898 15.5808L7.76466 15.7889L8.20699 16.2315L8.42815 16.4528L7.78015 17.0902L6.7274 18.1482C7.34609 18.6813 8.04178 19.1178 8.79087 19.4429C9.78279 19.8746 10.8519 20.1005 11.9336 20.1069H12.0552C13.3918 20.0999 14.7054 19.7591 15.877 19.1153C15.9472 19.0746 16.0249 19.0483 16.1054 19.0379C16.186 19.0276 16.2678 19.0334 16.346 19.0551C16.4243 19.0768 16.4974 19.1139 16.5612 19.1643C16.6249 19.2146 16.678 19.2772 16.7173 19.3483C16.7566 19.4194 16.7813 19.4977 16.79 19.5785C16.7987 19.6593 16.7912 19.741 16.7679 19.8188C16.7446 19.8967 16.7061 19.9691 16.6545 20.0319C16.6029 20.0946 16.5393 20.1465 16.4675 20.1843V20.1688Z" fill="url(#paint6_linear_7008_68992)"/>
<path d="M3.62466 21.2467C3.53639 21.0589 3.41672 20.8875 3.2708 20.7399C3.12374 20.5924 2.95146 20.4725 2.76212 20.3858C2.38481 20.2114 1.9582 20.1755 1.55709 20.2844C1.15598 20.3933 0.805972 20.64 0.568437 20.9813C0.330902 21.3226 0.221004 21.7366 0.258006 22.1509C0.295008 22.5651 0.47655 22.9531 0.770804 23.2468C1.06506 23.5405 1.45324 23.7212 1.86729 23.7572C2.28134 23.7932 2.69483 23.6821 3.03525 23.4435C3.37567 23.2049 3.6213 22.8541 3.72907 22.4524C3.83685 22.0507 3.79988 21.6239 3.62466 21.2467ZM2.66039 22.63C2.55356 22.7354 2.42224 22.8125 2.27823 22.8544C2.13423 22.8964 1.98206 22.9018 1.83543 22.8703C1.68879 22.8387 1.55229 22.7712 1.43822 22.6738C1.32414 22.5763 1.23606 22.452 1.18192 22.3121C1.12777 22.1721 1.10925 22.0209 1.12802 21.872C1.1468 21.7231 1.20227 21.5812 1.28946 21.459C1.37665 21.3369 1.49282 21.2384 1.6275 21.1724C1.76219 21.1063 1.91117 21.0749 2.06104 21.0808C2.28712 21.0886 2.5016 21.1829 2.66039 21.3441C2.82101 21.5025 2.91515 21.7162 2.92357 21.9417C2.9295 22.0677 2.90916 22.1936 2.86385 22.3113C2.81854 22.4291 2.74925 22.5361 2.66039 22.6256V22.63Z" fill="url(#paint7_linear_7008_68992)"/>
<path d="M6.28082 6.28534C5.13555 7.43037 4.36046 8.89332 4.05602 10.4845C3.75158 12.0757 3.93184 13.7217 4.57344 15.2091C4.67518 15.4437 4.78355 15.6716 4.90519 15.893C4.94353 15.9631 4.96768 16.0402 4.97625 16.1197C4.98483 16.1993 4.97767 16.2797 4.95518 16.3565C4.93269 16.4332 4.89532 16.5048 4.84519 16.5671C4.79506 16.6294 4.73316 16.6812 4.66302 16.7196C4.59287 16.758 4.51587 16.7821 4.4364 16.7907C4.35693 16.7993 4.27654 16.7921 4.19984 16.7696C4.12313 16.7471 4.05161 16.7097 3.98935 16.6596C3.92708 16.6094 3.87531 16.5474 3.83697 16.4772C3.69543 16.2227 3.56936 15.9616 3.45214 15.6938C2.75767 14.0765 2.53452 12.2955 2.80846 10.5567C3.0824 8.81789 3.84226 7.19208 5.00029 5.86704L2.06323 2.92566C2.28691 2.91322 2.49796 2.81797 2.65534 2.65843C2.81272 2.4989 2.90518 2.28648 2.91471 2.0625L3.61581 2.76409L6.7121 5.86261C6.57276 5.99983 6.42458 6.13926 6.28082 6.28534Z" fill="url(#paint8_linear_7008_68992)"/>
<path d="M3.27075 0.772124C3.04235 0.542539 2.75539 0.380061 2.44111 0.302384C2.12683 0.224706 1.79727 0.234805 1.48832 0.331581C1.17938 0.428358 0.902886 0.608102 0.688954 0.851243C0.475022 1.09438 0.331851 1.3916 0.275028 1.71053C0.218205 2.02946 0.249911 2.35788 0.366691 2.66003C0.483471 2.96217 0.680846 3.22647 0.937332 3.42413C1.19382 3.62179 1.49958 3.74525 1.82133 3.78105C2.14307 3.81685 2.46846 3.76363 2.76208 3.62719C2.95058 3.5381 3.12259 3.41761 3.27075 3.27086C3.41715 3.1237 3.53688 2.95221 3.62461 2.76403C3.776 2.43559 3.82324 2.06863 3.75998 1.71252C3.69672 1.35641 3.52598 1.02823 3.27075 0.772124ZM2.66034 2.65558C2.49074 2.82506 2.26086 2.92025 2.02118 2.92025C1.78149 2.92025 1.55162 2.82506 1.38202 2.65558C1.27674 2.54868 1.19968 2.41726 1.15777 2.27315C1.11586 2.12904 1.11042 1.97676 1.14193 1.83002C1.17344 1.68328 1.24092 1.54669 1.33829 1.43253C1.43566 1.31837 1.55986 1.23023 1.69972 1.17605C1.83959 1.12186 1.99072 1.10333 2.13953 1.12211C2.28833 1.1409 2.43012 1.19642 2.55216 1.28367C2.67419 1.37092 2.77263 1.48717 2.83861 1.62195C2.9046 1.75674 2.93606 1.90582 2.93016 2.0558C2.92053 2.28298 2.82392 2.49775 2.66034 2.65558Z" fill="url(#paint9_linear_7008_68992)"/>
<path d="M21.9347 21.083C21.7086 21.0908 21.4941 21.1851 21.3353 21.3463C21.1765 21.5059 21.0827 21.7189 21.0721 21.9439L17.2615 18.1482C17.4185 18.0176 17.5667 17.8782 17.7038 17.7344C18.9386 16.4956 19.7397 14.8901 19.9873 13.158C20.2348 11.4258 19.9156 9.66005 19.0772 8.12452C19.0296 8.0345 19.0046 7.93424 19.0042 7.83238C19.004 7.75267 19.0195 7.67369 19.0498 7.6C19.0802 7.52631 19.1248 7.45936 19.1812 7.40301C19.248 7.33633 19.3293 7.28605 19.4188 7.25612C19.5082 7.22619 19.6034 7.21742 19.6969 7.2305C19.7903 7.24358 19.8794 7.27816 19.9573 7.33152C20.0351 7.38487 20.0995 7.45556 20.1454 7.53802C21.0598 9.21278 21.4391 11.1278 21.2322 13.0249C21.0254 14.9221 20.2424 16.7102 18.9888 18.1482L21.2269 20.3792L21.9347 21.083Z" fill="url(#paint10_linear_7008_68992)"/>
<path d="M23.2175 20.7355C22.9618 20.4797 22.634 20.3084 22.2781 20.2447C21.9223 20.181 21.5554 20.2279 21.227 20.3791C21.0384 20.467 20.867 20.5876 20.7206 20.7355C20.4724 20.9828 20.3031 21.2983 20.2342 21.6419C20.1654 21.9856 20.2 22.342 20.3337 22.6659C20.4674 22.9899 20.6942 23.2669 20.9853 23.4617C21.2764 23.6566 21.6188 23.7607 21.969 23.7607C22.3193 23.7607 22.6616 23.6566 22.9528 23.4617C23.2439 23.2669 23.4707 22.9899 23.6044 22.6659C23.7381 22.342 23.7727 21.9856 23.7038 21.6419C23.6349 21.2983 23.4657 20.9828 23.2175 20.7355ZM22.6093 22.6256C22.4398 22.7955 22.2097 22.8911 21.9698 22.8913C21.7299 22.8915 21.4997 22.7963 21.3299 22.6267C21.1601 22.457 21.0645 22.2268 21.0643 21.9867C21.0641 21.7466 21.1592 21.5162 21.3288 21.3463C21.4892 21.1835 21.7063 21.0891 21.9347 21.0829C22.1185 21.0722 22.3011 21.118 22.4582 21.2141C22.6152 21.3102 22.7391 21.4521 22.8132 21.6207C22.8874 21.7893 22.9082 21.9766 22.8729 22.1574C22.8377 22.3382 22.748 22.5039 22.6159 22.6322L22.6093 22.6256Z" fill="url(#paint11_linear_7008_68992)"/>
<path d="M17.0688 7.78144C15.9496 6.43284 14.341 5.58438 12.5967 5.42272C10.8524 5.26105 9.11539 5.79942 7.76776 6.91938C6.42013 8.03935 5.57228 9.64917 5.41073 11.3947C5.24918 13.1402 5.78716 14.8785 6.90632 16.2271C7.02575 16.3747 7.15182 16.5141 7.28452 16.6454C7.43721 16.8015 7.59815 16.9492 7.76666 17.0881C9.03962 18.1472 10.6636 18.6895 12.317 18.6075C13.9705 18.5255 15.5329 17.8253 16.695 16.6454L16.8676 16.4661C17.9449 15.2876 18.5589 13.7584 18.5959 12.1616C18.6329 10.5648 18.0904 9.00865 17.0688 7.78144ZM13.9725 17.0172C12.6942 17.5261 11.2698 17.5261 9.99156 17.0172C9.5822 16.8517 9.19453 16.637 8.83709 16.3776C9.11073 15.7718 9.5527 15.2575 10.1103 14.8961C10.6679 14.5346 11.3177 14.3414 11.982 14.3392H11.9953C12.6619 14.3391 13.3143 14.5313 13.8745 14.8928C14.4346 15.2544 14.8787 15.7699 15.1535 16.3776C14.792 16.6392 14.3989 16.8541 13.9836 17.0172H13.9725ZM10.8762 12.0043C10.8758 11.8206 10.9206 11.6397 11.0067 11.4775C11.0928 11.3153 11.2175 11.1768 11.3697 11.0743C11.522 10.9718 11.6972 10.9084 11.8798 10.8898C12.0624 10.8711 12.2467 10.8978 12.4165 10.9675C12.5864 11.0371 12.7364 11.1475 12.8535 11.289C12.9705 11.4305 13.0509 11.5986 13.0875 11.7786C13.1241 11.9586 13.1159 12.1448 13.0635 12.3208C13.0111 12.4968 12.9162 12.6572 12.7871 12.7878L12.7694 12.8055C12.6646 12.9078 12.5406 12.9883 12.4045 13.0423C12.1399 13.1455 11.8463 13.1455 11.5817 13.0423C11.4378 12.9852 11.3074 12.8985 11.1991 12.7878C11.0965 12.6848 11.0152 12.5626 10.9598 12.4282C10.9043 12.2937 10.876 12.1497 10.8762 12.0043ZM16.0824 15.5122C15.5727 14.6017 14.7731 13.888 13.8111 13.4849L13.831 13.465V13.4451C14.1023 13.0985 14.2702 12.6823 14.3155 12.2444C14.3608 11.8064 14.2816 11.3646 14.0869 10.9698C13.8923 10.575 13.5902 10.2432 13.2153 10.0127C12.8405 9.78213 12.4083 9.66223 11.9684 9.66677C11.5284 9.6713 11.0987 9.8001 10.7288 10.0383C10.3588 10.2765 10.0636 10.6145 9.87709 11.0132C9.69063 11.412 9.62049 11.8553 9.67479 12.2922C9.72908 12.7291 9.90559 13.1418 10.184 13.4827C9.21785 13.8851 8.41483 14.6006 7.90378 15.5145C7.23354 14.7315 6.80168 13.7726 6.65939 12.7516C6.5171 11.7305 6.67034 10.69 7.10096 9.75339C7.53158 8.8168 8.22153 8.02341 9.089 7.46726C9.95646 6.9111 10.9651 6.61551 11.9953 6.61551C13.0255 6.61551 14.0342 6.9111 14.9016 7.46726C15.7691 8.02341 16.459 8.8168 16.8897 9.75339C17.3203 10.69 17.4735 11.7305 17.3312 12.7516C17.1889 13.7726 16.7571 14.7315 16.0868 15.5145L16.0824 15.5122Z" fill="url(#paint12_linear_7008_68992)"/>
<defs>
<linearGradient id="paint0_linear_7008_68992" x1="19.4174" y1="9.31005" x2="25.1577" y2="15.0463" gradientUnits="userSpaceOnUse">
<stop stop-color="#5C71B6"/>
<stop offset="0.18" stop-color="#5E77B9"/>
<stop offset="0.41" stop-color="#6588C1"/>
<stop offset="0.68" stop-color="#71A3CF"/>
<stop offset="0.97" stop-color="#80C9E2"/>
<stop offset="1" stop-color="#82CDE4"/>
</linearGradient>
<linearGradient id="paint1_linear_7008_68992" x1="9.28048" y1="-1.18795" x2="15.0709" y2="4.59835" gradientUnits="userSpaceOnUse">
<stop stop-color="#5C71B6"/>
<stop offset="0.18" stop-color="#5E77B9"/>
<stop offset="0.41" stop-color="#6588C1"/>
<stop offset="0.68" stop-color="#71A3CF"/>
<stop offset="0.97" stop-color="#80C9E2"/>
<stop offset="1" stop-color="#82CDE4"/>
</linearGradient>
<linearGradient id="paint2_linear_7008_68992" x1="-1.15969" y1="8.9563" x2="4.58069" y2="14.6926" gradientUnits="userSpaceOnUse">
<stop stop-color="#5C71B6"/>
<stop offset="0.18" stop-color="#5E77B9"/>
<stop offset="0.41" stop-color="#6588C1"/>
<stop offset="0.68" stop-color="#71A3CF"/>
<stop offset="0.97" stop-color="#80C9E2"/>
<stop offset="1" stop-color="#82CDE4"/>
</linearGradient>
<linearGradient id="paint3_linear_7008_68992" x1="8.92736" y1="19.4042" x2="14.7163" y2="25.1889" gradientUnits="userSpaceOnUse">
<stop stop-color="#5C71B6"/>
<stop offset="0.18" stop-color="#5E77B9"/>
<stop offset="0.41" stop-color="#6588C1"/>
<stop offset="0.68" stop-color="#71A3CF"/>
<stop offset="0.97" stop-color="#80C9E2"/>
<stop offset="1" stop-color="#82CDE4"/>
</linearGradient>
<linearGradient id="paint4_linear_7008_68992" x1="22.9718" y1="-3.72066" x2="14.2148" y2="4.11013" gradientUnits="userSpaceOnUse">
<stop stop-color="#715EA9"/>
<stop offset="1" stop-color="#5C71B6"/>
</linearGradient>
<linearGradient id="paint5_linear_7008_68992" x1="26.09" y1="-1.66666" x2="16.8483" y2="6.59535" gradientUnits="userSpaceOnUse">
<stop stop-color="#715EA9"/>
<stop offset="1" stop-color="#5C71B6"/>
</linearGradient>
<linearGradient id="paint6_linear_7008_68992" x1="9.46542" y1="-1.39907" x2="9.41226" y2="25.0778" gradientUnits="userSpaceOnUse">
<stop stop-color="#715EA9"/>
<stop offset="1" stop-color="#5C71B6"/>
</linearGradient>
<linearGradient id="paint7_linear_7008_68992" x1="2.08315" y1="-8.97043" x2="2.01227" y2="26.1225" gradientUnits="userSpaceOnUse">
<stop stop-color="#715EA9"/>
<stop offset="1" stop-color="#5C71B6"/>
</linearGradient>
<linearGradient id="paint8_linear_7008_68992" x1="4.78133" y1="-192.628" x2="3.95521" y2="227.807" gradientUnits="userSpaceOnUse">
<stop stop-color="#715EA9"/>
<stop offset="1" stop-color="#5C71B6"/>
</linearGradient>
<linearGradient id="paint9_linear_7008_68992" x1="2.05435" y1="-14.851" x2="1.98569" y2="20.2463" gradientUnits="userSpaceOnUse">
<stop stop-color="#715EA9"/>
<stop offset="1" stop-color="#5C71B6"/>
</linearGradient>
<linearGradient id="paint10_linear_7008_68992" x1="19.9995" y1="-186.936" x2="19.1756" y2="233.482" gradientUnits="userSpaceOnUse">
<stop stop-color="#715EA9"/>
<stop offset="1" stop-color="#5C71B6"/>
</linearGradient>
<linearGradient id="paint11_linear_7008_68992" x1="22.0033" y1="5.16763" x2="21.9346" y2="40.265" gradientUnits="userSpaceOnUse">
<stop stop-color="#715EA9"/>
<stop offset="1" stop-color="#5C71B6"/>
</linearGradient>
<linearGradient id="paint12_linear_7008_68992" x1="26.4882" y1="-8.1383" x2="7.51651" y2="18.1928" gradientUnits="userSpaceOnUse">
<stop stop-color="#5C71B6"/>
<stop offset="0.18" stop-color="#5E77B9"/>
<stop offset="0.41" stop-color="#6588C1"/>
<stop offset="0.68" stop-color="#71A3CF"/>
<stop offset="0.97" stop-color="#80C9E2"/>
<stop offset="1" stop-color="#82CDE4"/>
</linearGradient>
</defs>
</svg>
