<svg width="316" height="316" viewBox="0 0 316 316" fill="none" xmlns="http://www.w3.org/2000/svg">
<path d="M283 137.839H273.939L260.434 144.945C258.915 144.106 257.334 143.395 255.629 142.968L238.641 138.717V136.785C246.156 131.54 250.742 122.876 250.742 113.645V106.597C250.742 90.9325 238.468 77.8236 223.383 77.3664C222.616 77.3468 221.862 77.3745 221.104 77.4118L225.509 67.1008L204.156 45.7545L191.57 53.9471C186.807 51.2627 181.74 49.1606 176.476 47.686L173.367 33H142.637L139.528 47.69C134.264 49.1638 129.196 51.2657 124.434 53.9506L111.848 45.7581L90.5126 67.0932L94.8422 77.4118C94.6769 77.4042 94.5197 77.3745 94.3543 77.3705C86.6326 77.1462 79.3594 79.9637 73.8347 85.3266C68.3019 90.6865 65.2581 97.879 65.2581 105.581V113.645C65.2581 122.876 69.8397 131.536 77.3548 136.781V138.717L66.2742 141.487L46.1895 129.774H33V213.328L72.6689 226.548H80.3947L81.3594 223.17L93.5192 230.468C93.7182 237.08 99.0202 242.4 105.626 242.632C105.858 249.21 111.145 254.497 117.723 254.729C117.955 261.306 123.242 266.594 129.82 266.826C130.059 273.557 135.573 278.968 142.359 278.968C144.88 278.968 147.35 278.182 149.427 276.782L152.999 279.936C155.241 281.911 158.126 283 161.113 283H161.859C168.569 283 174.029 277.576 174.113 270.888C180.751 270.803 186.125 265.428 186.21 258.791C192.851 258.706 198.23 253.323 198.307 246.682C205.009 246.525 210.419 241.049 210.419 234.309C210.419 233.904 210.399 233.505 210.358 233.101L283 196.783V137.839ZM242.677 106.597V113.645C242.677 120.802 238.81 127.488 232.585 131.093L230.569 132.259L230.584 145.019L250.73 150.051L206.387 173.391V162.529C206.387 157.108 204.198 152.145 200.612 148.476L214.452 145.019V132.249L212.44 131.086C206.218 127.488 202.355 120.802 202.355 113.645V105.581C202.355 100.082 204.529 94.939 208.48 91.1099C212.427 87.2818 217.665 85.2188 223.14 85.4309C233.912 85.754 242.677 95.2495 242.677 106.597ZM164.08 170.221L145.827 164.387C137.508 161.721 128.504 161.324 119.989 163.21L117.677 163.722V162.528C117.677 156.969 121.448 152.141 126.839 150.79L149.935 145.019V132.249L147.923 131.086C141.702 127.488 137.839 120.802 137.839 113.645V105.581C137.839 100.082 140.013 94.939 143.964 91.1099C147.911 87.2818 153.182 85.2188 158.624 85.4309C169.396 85.754 178.161 95.2495 178.161 106.597V113.645C178.161 120.802 174.294 127.488 168.069 131.093L166.053 132.259L166.068 145.019L189.161 150.79C191.779 151.444 194.103 152.954 195.764 155.081C197.424 157.208 198.325 159.829 198.323 162.528V177.637L197.326 178.161H194.855L170.065 171.077C168.112 170.524 166.1 170.297 164.08 170.221ZM118.581 93.3498C126.153 78.6779 141.395 69.2903 158 69.2903C174.448 69.2903 189.624 78.5519 197.254 93.0252C195.304 96.9232 194.289 101.222 194.29 105.581V113.645C194.29 122.875 198.872 131.536 206.387 136.781V138.717L190.258 142.755L174.125 138.717V136.785C181.64 131.54 186.226 122.875 186.226 113.645V106.597C186.226 90.932 173.952 77.8236 158.866 77.3664C151.148 77.1401 143.871 79.9597 138.347 85.3231C132.818 90.686 129.774 97.8785 129.774 105.581V113.645C129.774 122.875 134.356 131.536 141.871 136.781V138.717L125.742 142.755L109.609 138.717V136.785C117.124 131.54 121.71 122.875 121.71 113.645V106.597C121.71 101.852 120.568 97.3468 118.581 93.3498ZM100.036 68.9637L112.919 56.0811L124.258 63.4602L126.427 62.1295C131.863 58.7979 137.738 56.3584 143.887 54.8881L146.368 54.2933L149.173 41.0645H166.831L169.628 54.2893L172.109 54.8821C178.258 56.3548 184.133 58.7944 189.569 62.1255L191.738 63.4561L203.078 56.0771L215.944 68.9476L211.37 79.6563C208.257 80.9955 205.37 82.8795 202.858 85.315C202.693 85.4763 202.551 85.6497 202.39 85.815C192.891 70.7142 176.096 61.2258 158 61.2258C139.774 61.2258 122.932 70.8024 113.456 86.0575C110.92 83.4032 107.904 81.253 104.561 79.751L100.036 68.9637ZM85.4194 145.019V132.249L83.4073 131.086C77.1855 127.488 73.3226 120.802 73.3226 113.645V105.581C73.3226 100.082 75.4965 94.939 79.4476 91.1099C83.3952 87.2818 88.6442 85.2188 94.1079 85.4309C104.88 85.754 113.645 95.2495 113.645 106.597V113.645C113.645 120.802 109.778 127.488 103.553 131.093L101.537 132.259L101.552 145.019L115.388 148.477C111.802 152.144 109.613 157.108 109.613 162.528V165.515L97.0358 168.31L97.3624 167.168L97.5161 159.716L76.2505 147.31L85.4194 145.019ZM41.0645 137.839H44.004L73.0035 154.754L58.371 213.282L41.0645 207.511V137.839ZM73.9763 218.484L66.0398 215.84L80.255 158.985L89.4516 164.347V165.499L74.315 218.484H73.9763ZM101.548 230.092C101.551 228.894 102.027 227.745 102.871 226.895L109.96 219.807C110.81 218.962 111.958 218.487 113.156 218.484C115.649 218.484 117.677 220.512 117.677 223.005C117.674 224.203 117.199 225.352 116.354 226.202L109.266 233.29C108.416 234.134 107.268 234.61 106.07 234.613C103.577 234.613 101.549 232.585 101.549 230.092H101.548ZM113.645 242.189C113.648 240.991 114.123 239.842 114.968 238.991L122.056 231.904C122.906 231.059 124.055 230.584 125.253 230.581C127.746 230.581 129.774 232.608 129.774 235.101C129.771 236.3 129.295 237.449 128.451 238.299L121.362 245.387C120.513 246.231 119.364 246.706 118.166 246.71C115.673 246.71 113.646 244.682 113.646 242.189H113.645ZM125.742 254.286C125.745 253.087 126.22 251.938 127.065 251.088L134.153 244.001C135.003 243.156 136.152 242.681 137.35 242.677C139.843 242.677 141.87 244.705 141.87 247.198C141.868 248.397 141.392 249.546 140.547 250.396L133.459 257.483C132.609 258.328 131.461 258.803 130.263 258.806C127.77 258.806 125.742 256.779 125.742 254.286H125.742ZM142.359 270.903C139.866 270.903 137.839 268.876 137.839 266.383C137.842 265.184 138.317 264.035 139.162 263.185L146.25 256.097C147.1 255.253 148.248 254.777 149.447 254.774C151.94 254.774 153.967 256.802 153.967 259.295C153.964 260.493 153.489 261.642 152.644 262.492L145.556 269.58C144.706 270.425 143.558 270.9 142.36 270.903H142.359ZM161.859 274.935H161.113C160.089 274.937 159.1 274.562 158.335 273.882L155.319 271.222L158.346 268.194C159.427 267.113 160.267 265.828 160.887 264.447L164.552 267.499C165.026 267.893 165.408 268.387 165.669 268.946C165.93 269.504 166.065 270.113 166.065 270.73C166.065 273.049 164.178 274.935 161.859 274.935ZM198.019 238.645H197.323C196.308 238.645 195.326 238.288 194.548 237.637L172.682 219.415L167.516 225.613L188.75 243.305C189.223 243.701 189.603 244.195 189.863 244.753C190.124 245.311 190.259 245.92 190.258 246.536C190.258 248.856 188.372 250.742 186.052 250.742H185.172C184.189 250.741 183.238 250.395 182.483 249.765L160.581 231.516L155.415 237.714L176.649 255.408C177.123 255.801 177.505 256.294 177.766 256.851C178.028 257.409 178.163 258.017 178.161 258.633C178.161 260.953 176.275 262.839 173.956 262.839C172.408 262.839 170.9 262.289 169.713 261.303L160.713 253.801C158.73 249.749 154.657 246.924 149.887 246.755C149.654 240.177 144.367 234.89 137.79 234.658C137.557 228.081 132.271 222.793 125.693 222.561C125.456 215.83 119.944 210.419 113.157 210.419C109.843 210.419 106.6 211.762 104.258 214.105L97.1699 221.193C96.7465 221.616 96.3957 222.097 96.0393 222.573L83.6532 215.141L94.5116 177.138L121.733 171.085C128.874 169.488 136.403 169.835 143.367 172.064L149.307 173.964L129.17 184.032C124.568 186.338 121.71 190.967 121.71 196.114V196.911C121.71 204.359 127.77 210.419 135.218 210.419C137.665 210.419 140.074 209.754 142.166 208.492L157.181 199.488C160.197 197.681 164.245 198.077 166.85 200.419L200.919 231.081C201.37 231.489 201.731 231.987 201.978 232.543C202.226 233.099 202.354 233.701 202.355 234.309C202.355 236.702 200.412 238.645 198.019 238.645ZM274.935 191.798L207.004 225.767C206.782 225.532 206.551 225.308 206.31 225.093L172.247 194.432C169.268 191.742 165.396 190.254 161.382 190.258C158.439 190.259 155.552 191.059 153.028 192.574L138.008 201.581C137.165 202.088 136.201 202.356 135.218 202.355C132.214 202.355 129.774 199.915 129.774 196.911V196.113C129.774 194.037 130.928 192.174 132.783 191.246L155.275 180C159.124 178.073 163.694 177.641 167.842 178.835L193.182 186.073L199.319 186.226L274.935 146.427V191.798Z" fill="#025169"/>
</svg>
